<svg xmlns="http://www.w3.org/2000/svg" viewBox="0 0 512 512"><circle cx="256" cy="256" r="256" fill="#005c83"/><path fill="#00263f" d="M512 256c0-1.167-.029-2.326-.044-3.489l-76.457-76.983-.37.572-52.324-52.041-19.309 32.332-56.79-56.79-24.801 99.568L91.854 351.762 252.042 511.95c1.319.02 2.635.05 3.958.05 141.385 0 256-114.615 256-256z"/><path fill="#ae4e32" d="M260.985 406.702l-62.899 21.228-44.254-126.501 62.9-21.229z"/><path fill="#fff" d="M391.053 340.709s-147.968-40.769-247.807-5.843l-26.665-76.223C216.42 223.717 306.706 99.6 306.706 99.6l84.347 241.109z"/><path fill="#e0e0e0" d="M132.753 304.872l10.493 29.995c99.84-34.927 247.808 5.843 247.808 5.843l-42.635-121.875-215.666 86.037z"/><path fill="#ff6838" d="M306.706 99.6s-11.298 15.526-30.305 37.131l67.809 193.835c28.33 5.046 46.844 10.143 46.844 10.143L306.706 99.6z"/><path fill="#ae4e32" d="M310.425 233.991l33.785 96.575c28.33 5.046 46.844 10.143 46.844 10.143l-42.635-121.875-37.994 15.157z"/><path fill="#ff6838" d="M91.854 351.762l51.392-16.895-26.665-76.223-51.055 17.86z"/><path fill="#ae4e32" d="M82.468 324.933l9.386 26.829 51.392-16.895-10.493-29.995z"/><path fill="#ffdc00" d="M377.3 221.932l-7.81-18.412 65.998-27.995 7.81 18.412z"/><path fill="#ffc000" d="M443.31 193.939l-4.388-10.344-66.198 27.532 4.586 10.812z"/><path fill="#ffdc00" d="M359.67 177.143l-18.334-7.992 23.141-53.088 18.334 7.992z"/><path fill="#ffc000" d="M437.045 284.814l-56.287-13.597 4.696-19.44 56.287 13.598z"/></svg>