<svg version="1" xmlns="http://www.w3.org/2000/svg" width="933.333" height="933.333" viewBox="0 0 700.000000 700.000000"><path d="M331.5 1.1C237.3 5.8 147.9 49.4 86.4 120.5 14.2 204-14.3 313.4 8 421.9c15.1 73.5 55.5 142.4 112.5 191.7 52.6 45.5 115.6 73.9 183.6 82.9 16.6 2.2 48.6 3.8 61.9 3.1 75.6-4.2 143.9-29.9 202.5-76.3 14.1-11.1 43.7-40.7 54.8-54.8 46.4-58.6 72.1-126.9 76.3-202.5.7-13.3-.9-45.3-3.1-61.9-10.9-82.8-51.8-160-113.5-214.5-54.4-48-117.1-76.9-187.1-86.1-9.4-1.3-47.2-3.8-48.9-3.3-.3 0-7.2.4-15.5.9zm116 214.9c65.5 186.9 87.3 249.5 87.1 249.7-.2.2-6.9-1.2-14.9-3.2C459.8 448.2 386.4 439 332 439h-16.7l20.3 58.2c11.2 32 20.3 58.3 20.1 58.4-.9.9-84 28.4-84.4 28-.3-.3-11-30.4-23.8-66.8-22.3-63.7-23.3-66.3-25.6-66.1-4.5.5-27.3 7.5-61.8 18.9-19 6.2-34.6 11.3-34.7 11.1-.1-.1-8.1-23.1-17.9-51-10-28.7-17.4-51.2-16.9-51.7s15.1-5.8 32.4-11.8c17.3-6.1 36.8-13.1 43.4-15.6C215.9 331.4 268 295.7 322 244.2c31.7-30.3 63.2-64.9 88.4-97.1l9-11.4 1.2 3.4c.6 1.9 12.7 36.5 26.9 76.9zm63.7-52.1c6.2 2.8 11.4 5.4 11.6 5.9.3.9-29.4 70-30.8 71.5-.7.8-25-9.2-25-10.3 0-.6 21.8-51.7 28.3-66.3 1.4-3.1 3-5.7 3.6-5.7.5 0 6 2.2 12.3 4.9zm89.8 88.6c2.9 6.9 5.1 12.7 4.9 12.9-.8.8-86.5 36.9-88.5 37.3-1.8.4-2.7-1-7.1-11.9-2.8-6.7-4.9-12.4-4.8-12.6.4-.4 88.8-38.1 89.5-38.2.3 0 3 5.6 6 12.5zm-35 101c20.1 4.8 36.8 9.1 37.2 9.4 1.1 1-5.3 26.1-6.6 26.1-2 0-74.7-17.7-75.3-18.4-.3-.3.4-4.7 1.6-9.9 3.4-14.6 4.1-16.9 5.4-16.4.7.2 17.6 4.4 37.7 9.2z"/></svg>